<?xml version="1.0" encoding="UTF-8"?>
<svg xmlns="http://www.w3.org/2000/svg" xmlns:xlink="http://www.w3.org/1999/xlink" width="50px" height="50px" viewBox="0 0 50 50" version="1.1">
<g id="surface1">
<path style=" stroke:none;fill-rule:nonzero;fill:rgb(0%,0%,0%);fill-opacity:1;" d="M 24.460938 2.519531 C 23.730469 2.65625 23.085938 3.105469 22.773438 3.710938 C 22.675781 3.925781 22.636719 3.953125 22.453125 3.984375 C 19.042969 4.492188 15.90625 5.695312 13.625 7.363281 C 12.578125 8.125 12.089844 8.71875 11.503906 9.941406 C 10.632812 11.71875 10.304688 13.71875 10.304688 17.1875 L 10.304688 19.023438 L 9.882812 19.433594 C 8.90625 20.390625 8.515625 21.308594 8.640625 22.285156 C 8.71875 22.890625 9.179688 23.632812 9.667969 23.9375 L 9.785156 24.015625 L 9.601562 24.171875 C 9.394531 24.34375 9.277344 24.539062 9.277344 24.71875 C 9.277344 24.902344 9.550781 25.320312 9.882812 25.664062 C 10.1875 25.96875 10.742188 26.335938 11.007812 26.398438 C 11.09375 26.414062 11.191406 26.515625 11.308594 26.710938 C 11.71875 27.34375 12.429688 28 13.09375 28.351562 C 13.339844 28.476562 13.429688 28.546875 13.40625 28.59375 C 13.359375 28.730469 13.476562 29.316406 13.625 29.617188 C 13.796875 30.007812 14.09375 30.429688 14.40625 30.78125 C 14.648438 31.054688 15.28125 31.5625 15.515625 31.6875 C 15.605469 31.726562 15.625 31.789062 15.625 31.960938 C 15.625 32.324219 15.945312 32.851562 16.359375 33.125 L 16.464844 33.203125 L 16.179688 33.554688 C 15.304688 34.617188 14.648438 36.035156 14.40625 37.414062 L 14.335938 37.742188 L 12.96875 37.753906 C 11.671875 37.773438 11.59375 37.773438 11.40625 37.871094 C 11.152344 38.007812 10.96875 38.203125 10.859375 38.457031 C 10.773438 38.632812 10.761719 38.898438 10.75 42.179688 C 10.742188 44.484375 10.761719 45.773438 10.789062 45.898438 C 10.859375 46.171875 11.035156 46.398438 11.28125 46.53125 L 11.503906 46.660156 L 24.902344 46.660156 C 32.765625 46.660156 38.378906 46.648438 38.476562 46.632812 C 38.71875 46.5625 38.898438 46.414062 39.03125 46.171875 C 39.121094 45.996094 39.140625 45.90625 39.132812 45.429688 C 39.109375 44.746094 38.984375 43.945312 38.847656 43.585938 L 38.71875 43.289062 L 38.9375 43 C 39.851562 41.640625 39.734375 39.628906 38.671875 38.574219 C 38.105469 38.007812 37.539062 37.792969 36.425781 37.765625 L 35.703125 37.726562 L 35.546875 37.089844 C 35.203125 35.664062 34.589844 34.414062 33.808594 33.476562 L 33.5625 33.183594 L 33.789062 33.007812 C 34.109375 32.742188 34.335938 32.375 34.375 32.023438 L 34.394531 31.75 L 34.785156 31.484375 C 35.839844 30.78125 36.570312 29.71875 36.648438 28.796875 L 36.6875 28.46875 L 37.089844 28.242188 C 37.742188 27.882812 38.601562 27 38.742188 26.570312 C 38.757812 26.515625 38.808594 26.464844 38.847656 26.464844 C 38.886719 26.464844 39.109375 26.367188 39.367188 26.242188 C 39.890625 25.96875 40.371094 25.527344 40.617188 25.097656 C 40.851562 24.6875 40.828125 24.5625 40.5 24.238281 L 40.234375 23.976562 L 40.359375 23.90625 C 40.605469 23.78125 41.035156 23.28125 41.203125 22.949219 C 41.71875 21.855469 41.359375 20.605469 40.1875 19.460938 L 39.746094 19.023438 L 39.746094 17.414062 C 39.746094 13.59375 39.414062 11.640625 38.429688 9.679688 C 38.09375 9.003906 37.648438 8.359375 37.304688 8.046875 C 35.34375 6.21875 31.414062 4.539062 27.910156 4.023438 L 27.34375 3.9375 L 27.246094 3.71875 C 26.835938 2.8125 25.644531 2.296875 24.460938 2.519531 Z M 25.742188 3.5625 C 25.878906 3.613281 26.054688 3.710938 26.125 3.757812 C 26.21875 3.835938 26.179688 3.828125 25.878906 3.71875 C 25.253906 3.515625 24.316406 3.5625 23.875 3.847656 C 23.757812 3.914062 23.757812 3.914062 23.828125 3.835938 C 24.140625 3.457031 25.097656 3.320312 25.742188 3.5625 Z M 24.851562 4.734375 C 24.851562 4.804688 24.785156 4.824219 24.433594 4.851562 C 22.949219 4.960938 21.609375 5.242188 19.882812 5.820312 C 19.316406 6.007812 19.003906 6.132812 19.023438 6.171875 C 19.042969 6.203125 19.023438 6.203125 18.976562 6.179688 C 18.828125 6.132812 16.609375 7.117188 16.640625 7.226562 C 16.648438 7.257812 16.621094 7.273438 16.59375 7.257812 C 16.554688 7.246094 16.484375 7.257812 16.4375 7.285156 C 16.386719 7.3125 16.328125 7.304688 16.25 7.246094 C 16.191406 7.207031 16.09375 7.179688 16.035156 7.179688 C 15.96875 7.179688 15.96875 7.195312 16.015625 7.207031 C 16.054688 7.226562 16.140625 7.296875 16.230469 7.363281 C 16.484375 7.617188 16.359375 8.085938 15.996094 8.183594 C 15.800781 8.222656 15.546875 8.078125 15.476562 7.882812 C 15.449219 7.792969 15.4375 7.664062 15.460938 7.617188 C 15.476562 7.546875 15.46875 7.519531 15.4375 7.539062 C 15.410156 7.546875 15.382812 7.636719 15.359375 7.734375 C 15.332031 7.859375 15.28125 7.929688 15.15625 8.007812 C 14.875 8.183594 13.769531 9.023438 13.429688 9.328125 C 13.25 9.484375 13.066406 9.640625 13.007812 9.667969 C 12.753906 9.785156 12.03125 11.5625 11.765625 12.695312 C 11.503906 13.847656 11.375 15.253906 11.375 17.023438 C 11.375 18.144531 11.359375 18.40625 11.308594 18.484375 C 11.242188 18.574219 11.230469 18.417969 11.230469 17.140625 C 11.230469 13.769531 11.542969 11.921875 12.429688 10.136719 C 12.988281 9.03125 13.507812 8.515625 14.96875 7.617188 C 16.679688 6.542969 18.585938 5.789062 21.074219 5.195312 C 22.1875 4.929688 23.222656 4.757812 24.023438 4.707031 C 24.277344 4.6875 24.492188 4.667969 24.5 4.65625 C 24.511719 4.65625 24.589844 4.648438 24.6875 4.648438 C 24.8125 4.648438 24.851562 4.667969 24.851562 4.734375 Z M 26.660156 4.765625 C 28.964844 5.046875 31.796875 5.890625 33.742188 6.875 C 35.742188 7.890625 36.75 8.640625 37.324219 9.578125 C 38.203125 11.007812 38.71875 13.117188 38.789062 15.605469 C 38.875 18.300781 38.867188 18.585938 38.789062 18.484375 C 38.703125 18.40625 38.691406 18.242188 38.664062 16.726562 C 38.632812 15.019531 38.59375 14.578125 38.429688 13.445312 C 38.25 12.296875 38.027344 11.570312 37.46875 10.3125 C 37.226562 9.785156 37.15625 9.6875 36.894531 9.453125 C 36.738281 9.296875 36.582031 9.199219 36.554688 9.210938 C 36.523438 9.226562 36.515625 9.226562 36.53125 9.199219 C 36.582031 9.148438 36.476562 9.023438 36.425781 9.0625 C 36.398438 9.082031 36.375 9.0625 36.386719 9.042969 C 36.40625 8.984375 35.984375 8.664062 35.332031 8.222656 C 34.890625 7.929688 34.8125 7.859375 34.773438 7.714844 L 34.726562 7.539062 L 34.71875 7.734375 C 34.71875 7.988281 34.550781 8.15625 34.277344 8.144531 C 33.867188 8.132812 33.640625 7.714844 33.886719 7.402344 C 33.953125 7.324219 34.042969 7.246094 34.101562 7.226562 C 34.179688 7.195312 34.179688 7.179688 34.121094 7.179688 C 34.082031 7.179688 33.976562 7.234375 33.886719 7.304688 C 33.789062 7.390625 33.742188 7.402344 33.742188 7.363281 C 33.742188 7.304688 32.695312 6.765625 32.078125 6.492188 C 30.734375 5.929688 29.355469 5.488281 27.832031 5.15625 C 27.078125 4.992188 26.679688 4.929688 25.859375 4.863281 C 25.265625 4.8125 25.175781 4.796875 25.15625 4.71875 C 25.136719 4.640625 25.175781 4.640625 25.59375 4.65625 C 25.851562 4.679688 26.320312 4.726562 26.660156 4.765625 Z M 24.109375 7.988281 L 24.316406 8.066406 L 24.316406 8.574219 C 24.316406 8.835938 24.296875 9.132812 24.289062 9.210938 C 24.265625 9.355469 24.257812 9.355469 23.90625 9.355469 C 23.171875 9.355469 22.675781 9.757812 22.507812 10.46875 C 22.429688 10.839844 22.558594 11.328125 22.792969 11.542969 C 22.898438 11.640625 23.164062 11.71875 23.273438 11.6875 C 23.378906 11.640625 23.359375 11.4375 23.242188 11.40625 C 23.039062 11.335938 23 11.25 23 10.789062 L 23 10.371094 L 23.261719 10.332031 C 23.390625 10.320312 23.757812 10.304688 24.0625 10.304688 L 24.609375 10.304688 L 24.609375 11.40625 C 24.609375 12.03125 24.589844 12.546875 24.570312 12.578125 C 24.492188 12.675781 24.148438 12.898438 23.886719 13.027344 C 23.640625 13.144531 23.554688 13.164062 23.125 13.164062 C 22.6875 13.164062 22.609375 13.144531 22.351562 13.015625 C 21.09375 12.402344 20.761719 10.46875 21.679688 9.0625 C 22.3125 8.09375 23.242188 7.6875 24.109375 7.988281 Z M 27.539062 7.988281 L 27.714844 8.039062 L 27.726562 8.59375 C 27.742188 9.375 27.765625 9.355469 27.363281 9.355469 C 26.609375 9.375 26.074219 9.914062 26.074219 10.644531 C 26.074219 10.917969 26.125 11.085938 26.296875 11.335938 C 26.515625 11.640625 26.875 11.738281 27.273438 11.601562 C 27.441406 11.542969 27.492188 11.542969 27.625 11.601562 L 27.78125 11.671875 L 27.78125 12.207031 C 27.78125 12.5 27.765625 12.773438 27.753906 12.820312 C 27.734375 12.859375 27.609375 12.960938 27.46875 13.027344 C 27.265625 13.132812 27.15625 13.15625 26.804688 13.15625 C 26.289062 13.164062 25.957031 13.015625 25.539062 12.617188 C 25.019531 12.128906 24.734375 11.4375 24.734375 10.644531 C 24.734375 9.824219 25.007812 9.132812 25.566406 8.546875 C 26.140625 7.929688 26.835938 7.734375 27.539062 7.988281 Z M 20.878906 10.683594 C 20.890625 12.675781 20.878906 13.15625 20.820312 13.203125 C 20.773438 13.261719 19.824219 13.476562 19.648438 13.476562 C 19.601562 13.476562 19.578125 12.9375 19.578125 10.984375 L 19.578125 8.496094 L 19.765625 8.445312 C 20.460938 8.273438 20.742188 8.210938 20.820312 8.222656 C 20.851562 8.234375 20.878906 9.160156 20.878906 10.683594 Z M 29.707031 8.28125 C 29.953125 8.320312 30.175781 8.378906 30.226562 8.398438 C 30.273438 8.417969 30.351562 8.652344 30.4375 9.0625 C 30.515625 9.40625 30.695312 10.1875 30.839844 10.789062 C 31.0625 11.710938 31.445312 13.261719 31.515625 13.585938 C 31.523438 13.640625 31.503906 13.671875 31.453125 13.671875 C 31.375 13.671875 30.5 13.507812 30.242188 13.457031 C 30.15625 13.429688 30.125 13.367188 30.078125 13.085938 C 30.046875 12.910156 30 12.726562 29.980469 12.695312 C 29.96875 12.675781 29.8125 12.636719 29.65625 12.625 L 29.34375 12.585938 L 29.296875 12.871094 C 29.265625 13.039062 29.226562 13.203125 29.199219 13.234375 C 29.179688 13.28125 29.023438 13.273438 28.496094 13.203125 C 27.960938 13.132812 27.832031 13.105469 27.832031 13.039062 C 27.832031 12.9375 27.832031 12.929688 28.4375 10.820312 C 28.691406 9.902344 28.945312 8.964844 29.003906 8.742188 C 29.132812 8.203125 29.132812 8.203125 29.210938 8.203125 C 29.25 8.203125 29.472656 8.234375 29.707031 8.28125 Z M 32.03125 8.789062 C 32.648438 8.945312 33.398438 9.226562 33.742188 9.421875 C 34.140625 9.65625 34.492188 10.03125 34.65625 10.390625 C 34.773438 10.644531 34.785156 10.722656 34.785156 11.210938 C 34.785156 11.671875 34.773438 11.765625 34.6875 11.933594 C 34.421875 12.429688 33.964844 12.597656 33.222656 12.480469 L 32.960938 12.441406 L 32.960938 14.042969 L 32.460938 13.9375 C 31.59375 13.742188 31.671875 13.78125 31.640625 13.445312 C 31.59375 13.085938 31.582031 8.691406 31.621094 8.691406 C 31.640625 8.691406 31.816406 8.742188 32.03125 8.789062 Z M 18.632812 8.886719 C 18.886719 9.015625 18.976562 9.140625 19.070312 9.53125 C 19.210938 10.046875 19.109375 10.566406 18.796875 10.957031 C 18.710938 11.054688 18.652344 11.140625 18.652344 11.152344 C 19.160156 11.476562 19.335938 11.738281 19.335938 12.234375 C 19.335938 12.976562 18.898438 13.523438 18.066406 13.859375 C 17.78125 13.964844 16.242188 14.40625 16.132812 14.40625 C 16.074219 14.40625 16.0625 13.945312 16.0625 11.945312 L 16.0625 9.492188 L 16.230469 9.421875 C 17.285156 9.003906 17.949219 8.796875 18.261719 8.789062 C 18.351562 8.789062 18.523438 8.835938 18.632812 8.886719 Z M 26.6875 15.136719 C 29.863281 15.382812 33.183594 16.308594 36.035156 17.726562 C 37.539062 18.476562 38.574219 19.1875 39.453125 20.070312 C 40.265625 20.867188 40.578125 21.484375 40.507812 22.117188 C 40.460938 22.460938 40.359375 22.675781 40.410156 22.351562 C 40.4375 22 40.351562 21.660156 40.136719 21.203125 C 39.667969 20.265625 38.132812 18.992188 36.375 18.085938 C 33.757812 16.726562 30.398438 15.75 27.179688 15.398438 C 25.996094 15.273438 23.90625 15.28125 22.675781 15.429688 C 19.367188 15.8125 15.605469 16.992188 13.105469 18.4375 C 11.984375 19.082031 10.9375 19.875 10.449219 20.460938 C 9.882812 21.125 9.667969 21.601562 9.667969 22.21875 L 9.65625 22.578125 L 9.589844 22.363281 C 9.367188 21.679688 9.746094 20.859375 10.703125 19.941406 C 13.132812 17.609375 18.234375 15.644531 23.027344 15.164062 C 23.808594 15.085938 25.839844 15.070312 26.6875 15.136719 Z M 20.722656 20.75 C 20.710938 20.78125 20.664062 20.78125 20.625 20.773438 C 20.566406 20.75 20.554688 20.75 20.578125 20.789062 C 20.59375 20.820312 20.605469 20.851562 20.585938 20.851562 C 20.578125 20.851562 20.527344 20.867188 20.488281 20.878906 C 20.410156 20.90625 20.421875 20.878906 20.507812 20.78125 C 20.605469 20.683594 20.789062 20.65625 20.722656 20.75 Z M 31.542969 20.859375 C 31.453125 21.210938 31.445312 21.476562 31.523438 21.53125 C 31.609375 21.609375 31.867188 21.542969 32.296875 21.328125 C 32.453125 21.25 32.597656 21.203125 32.617188 21.21875 C 32.625 21.242188 32.617188 21.269531 32.585938 21.269531 C 32.546875 21.289062 32.519531 21.320312 32.519531 21.335938 C 32.519531 21.367188 32.570312 21.367188 32.617188 21.328125 C 32.695312 21.28125 32.726562 21.28125 32.773438 21.328125 C 32.820312 21.375 32.84375 21.359375 32.890625 21.230469 L 32.949219 21.074219 L 32.960938 21.320312 L 32.960938 21.582031 L 33.132812 21.582031 C 33.351562 21.582031 33.90625 21.328125 34.355469 21.015625 C 34.539062 20.890625 34.667969 20.820312 34.640625 20.851562 C 34.609375 20.898438 34.589844 20.96875 34.589844 21.015625 C 34.589844 21.074219 34.628906 21.054688 34.757812 20.917969 C 34.890625 20.761719 34.914062 20.75 34.890625 20.828125 C 34.863281 20.96875 34.941406 20.984375 34.980469 20.859375 C 34.992188 20.820312 35 20.917969 34.992188 21.09375 C 34.960938 21.503906 34.8125 21.894531 34.539062 22.265625 C 34.421875 22.414062 34.328125 22.578125 34.328125 22.609375 C 34.328125 22.675781 34.640625 22.675781 34.71875 22.585938 C 34.785156 22.519531 34.746094 23.320312 34.640625 24.160156 C 34.570312 24.65625 34.570312 24.71875 34.640625 24.824219 C 34.765625 25.03125 34.941406 24.980469 35.304688 24.628906 L 35.527344 24.414062 L 35.664062 24.648438 C 35.78125 24.882812 35.789062 24.929688 35.789062 25.515625 C 35.789062 27.117188 35.46875 28.46875 34.875 29.335938 C 34.609375 29.71875 33.964844 30.371094 33.523438 30.695312 C 32.324219 31.59375 30.078125 32.34375 27.773438 32.636719 C 25.449219 32.929688 22.871094 32.832031 20.75 32.375 C 19.890625 32.179688 19.835938 32.167969 18.964844 31.875 C 16.503906 31.046875 15.097656 29.835938 14.550781 28.054688 C 14.34375 27.363281 14.257812 26.757812 14.226562 25.789062 L 14.1875 24.953125 L 14.335938 24.6875 L 14.460938 24.414062 L 14.667969 24.640625 C 14.921875 24.921875 15.164062 24.992188 15.304688 24.824219 C 15.382812 24.707031 15.382812 24.679688 15.3125 24.101562 C 15.234375 23.554688 15.136719 22.148438 15.136719 21.710938 L 15.136719 21.53125 L 15.75 21.53125 C 16.085938 21.53125 16.5625 21.515625 16.816406 21.484375 C 17.0625 21.464844 17.402344 21.425781 17.578125 21.40625 C 17.898438 21.386719 18.875 21.191406 18.964844 21.140625 C 18.992188 21.113281 19.09375 21.09375 19.160156 21.074219 C 19.25 21.0625 19.289062 21.0625 19.25 21.074219 C 19.199219 21.09375 19.199219 21.113281 19.238281 21.171875 C 19.289062 21.21875 19.289062 21.257812 19.238281 21.308594 C 19.148438 21.414062 19.238281 21.503906 19.570312 21.632812 C 20.203125 21.875 20.828125 21.972656 21.777344 22 L 22.675781 22.039062 L 23.09375 22.246094 C 23.652344 22.519531 24.304688 22.734375 24.96875 22.851562 C 25.734375 22.988281 26.90625 22.988281 27.585938 22.851562 C 28.515625 22.65625 29.765625 22.101562 30.546875 21.523438 C 30.957031 21.21875 31.132812 21.140625 31.203125 21.242188 C 31.242188 21.308594 31.296875 21.191406 31.296875 21.054688 C 31.296875 20.996094 31.523438 20.703125 31.570312 20.703125 C 31.570312 20.703125 31.570312 20.78125 31.542969 20.859375 Z M 19.453125 21.046875 C 19.414062 21.09375 19.355469 21.125 19.335938 21.113281 C 19.328125 21.09375 19.355469 21.054688 19.40625 21.015625 C 19.539062 20.917969 19.5625 20.929688 19.453125 21.046875 Z M 31.25 21.015625 C 31.25 21.023438 31.210938 21.0625 31.171875 21.09375 C 31.085938 21.164062 31.085938 21.164062 31.152344 21.074219 C 31.210938 20.996094 31.25 20.976562 31.25 21.015625 Z M 32.734375 21.191406 C 32.753906 21.210938 32.742188 21.242188 32.714844 21.242188 C 32.695312 21.242188 32.664062 21.210938 32.664062 21.191406 C 32.664062 21.164062 32.675781 21.140625 32.6875 21.140625 C 32.695312 21.140625 32.726562 21.164062 32.734375 21.191406 Z M 13.554688 26.101562 L 13.574219 26.445312 L 13.476562 26.320312 C 13.40625 26.25 13.398438 26.191406 13.429688 26.132812 C 13.476562 26.023438 13.351562 25.878906 13.28125 25.976562 C 13.242188 26.046875 13.234375 26.046875 13.234375 25.976562 C 13.234375 25.890625 13.4375 25.671875 13.476562 25.710938 C 13.507812 25.742188 13.523438 25.90625 13.554688 26.101562 Z M 36.738281 25.859375 C 36.816406 25.976562 36.816406 25.996094 36.726562 26.113281 C 36.671875 26.191406 36.59375 26.289062 36.523438 26.335938 L 36.425781 26.4375 L 36.445312 26.125 C 36.476562 25.945312 36.492188 25.78125 36.503906 25.75 C 36.523438 25.664062 36.648438 25.710938 36.738281 25.859375 Z M 13.445312 27.050781 C 13.625 27.148438 13.671875 27.195312 13.691406 27.34375 C 13.703125 27.453125 13.742188 27.570312 13.75 27.609375 C 13.769531 27.664062 13.757812 27.675781 13.625 27.636719 C 13.546875 27.609375 13.496094 27.558594 13.507812 27.519531 C 13.523438 27.492188 13.515625 27.492188 13.484375 27.507812 C 13.457031 27.53125 13.328125 27.492188 13.222656 27.421875 C 12.949219 27.257812 12.753906 27.101562 12.820312 27.101562 C 12.84375 27.101562 12.921875 27.148438 12.988281 27.195312 C 13.085938 27.296875 13.105469 27.304688 13.171875 27.226562 C 13.25 27.140625 13.25 27.140625 13.171875 27.167969 C 13.117188 27.179688 13.085938 27.179688 13.105469 27.128906 C 13.105469 27.101562 13.085938 27.078125 13.054688 27.078125 C 13.015625 27.101562 12.988281 27.078125 13.007812 27.050781 C 13.007812 27.023438 12.96875 26.972656 12.921875 26.933594 C 12.871094 26.90625 12.773438 26.828125 12.714844 26.757812 L 12.597656 26.640625 L 12.648438 26.757812 C 12.703125 26.875 12.703125 26.875 12.625 26.804688 C 12.578125 26.777344 12.546875 26.765625 12.546875 26.796875 C 12.546875 26.867188 12.675781 26.953125 12.714844 26.921875 C 12.726562 26.90625 12.742188 26.90625 12.742188 26.933594 C 12.742188 27.050781 12.675781 27.039062 12.53125 26.882812 C 12.324219 26.660156 12.1875 26.464844 12.257812 26.464844 C 12.273438 26.464844 12.324219 26.445312 12.375 26.4375 C 12.421875 26.414062 12.441406 26.445312 12.429688 26.492188 C 12.421875 26.5625 12.460938 26.59375 12.53125 26.59375 C 12.597656 26.59375 12.625 26.582031 12.617188 26.5625 C 12.609375 26.542969 12.570312 26.53125 12.53125 26.542969 C 12.480469 26.5625 12.453125 26.542969 12.453125 26.515625 C 12.453125 26.492188 12.480469 26.464844 12.5 26.464844 C 12.53125 26.464844 12.546875 26.445312 12.546875 26.425781 C 12.53125 26.308594 12.578125 26.347656 12.890625 26.621094 C 13.066406 26.796875 13.328125 26.984375 13.445312 27.050781 Z M 37.578125 26.398438 C 37.636719 26.414062 37.648438 26.445312 37.597656 26.464844 C 37.558594 26.492188 37.53125 26.554688 37.519531 26.609375 C 37.519531 26.6875 37.53125 26.6875 37.578125 26.648438 C 37.636719 26.609375 37.648438 26.59375 37.585938 26.542969 C 37.539062 26.515625 37.546875 26.515625 37.597656 26.53125 C 37.648438 26.542969 37.714844 26.53125 37.742188 26.492188 C 37.773438 26.464844 37.792969 26.464844 37.792969 26.492188 C 37.792969 26.582031 37.3125 27.078125 37.089844 27.246094 C 36.984375 27.324219 36.738281 27.460938 36.5625 27.558594 C 36.242188 27.726562 36.230469 27.726562 36.28125 27.609375 C 36.308594 27.539062 36.328125 27.421875 36.328125 27.34375 C 36.328125 27.226562 36.375 27.179688 36.601562 27.050781 C 36.75 26.972656 36.984375 26.789062 37.128906 26.640625 C 37.382812 26.367188 37.429688 26.347656 37.578125 26.398438 Z M 17.382812 31.816406 C 17.453125 31.855469 17.480469 31.882812 17.460938 31.882812 C 17.429688 31.882812 17.351562 31.855469 17.285156 31.816406 C 17.21875 31.765625 17.1875 31.738281 17.207031 31.738281 C 17.234375 31.738281 17.3125 31.765625 17.382812 31.816406 Z M 17.949219 32.03125 C 18.007812 32.0625 18.015625 32.078125 17.96875 32.078125 C 17.929688 32.078125 17.859375 32.050781 17.820312 32.03125 C 17.734375 31.972656 17.8125 31.972656 17.949219 32.03125 Z M 18.796875 32.324219 C 18.835938 32.34375 18.847656 32.375 18.828125 32.375 C 18.796875 32.375 18.742188 32.34375 18.703125 32.324219 C 18.664062 32.304688 18.652344 32.273438 18.671875 32.273438 C 18.703125 32.273438 18.757812 32.304688 18.796875 32.324219 Z M 19.367188 32.53125 C 19.601562 32.625 20.3125 33.085938 20.3125 33.132812 C 20.3125 33.15625 20.242188 33.105469 20.15625 33.046875 C 20.070312 32.988281 19.746094 32.8125 19.433594 32.65625 C 18.925781 32.402344 18.875 32.304688 19.367188 32.53125 Z M 30.839844 32.519531 C 30.695312 32.597656 30.539062 32.65625 30.5 32.636719 C 30.46875 32.617188 30.460938 32.617188 30.476562 32.636719 C 30.5 32.664062 30.382812 32.765625 30.214844 32.851562 C 29.882812 33.027344 29.277344 33.429688 28.992188 33.652344 C 28.886719 33.742188 28.808594 33.769531 28.808594 33.742188 C 28.808594 33.664062 28.742188 33.71875 28.742188 33.808594 C 28.730469 33.835938 28.710938 33.859375 28.671875 33.847656 C 28.640625 33.835938 28.613281 33.859375 28.613281 33.886719 C 28.613281 33.90625 28.496094 34.03125 28.351562 34.160156 C 28.203125 34.277344 28.078125 34.367188 28.078125 34.34375 C 28.078125 34.277344 28.828125 33.546875 29.160156 33.28125 C 29.445312 33.054688 29.914062 32.78125 29.851562 32.871094 C 29.835938 32.898438 29.851562 32.910156 29.882812 32.898438 C 29.929688 32.890625 29.953125 32.851562 29.953125 32.820312 C 29.929688 32.753906 30.109375 32.695312 30.175781 32.742188 C 30.226562 32.765625 30.226562 32.765625 30.203125 32.726562 C 30.1875 32.695312 30.175781 32.664062 30.1875 32.664062 C 30.195312 32.664062 30.390625 32.597656 30.617188 32.519531 C 31.132812 32.34375 31.203125 32.34375 30.839844 32.519531 Z M 20.398438 32.9375 C 20.507812 33.007812 20.605469 33.085938 20.605469 33.105469 C 20.605469 33.132812 20.625 33.15625 20.65625 33.132812 C 20.78125 33.105469 21.875 34.199219 22.039062 34.511719 C 22.0625 34.550781 22.023438 34.523438 21.953125 34.453125 C 21.757812 34.210938 21.582031 34.03125 21.582031 34.0625 C 21.582031 34.082031 21.53125 34.0625 21.484375 34.003906 C 21.4375 33.964844 21.398438 33.90625 21.40625 33.886719 C 21.40625 33.867188 21.386719 33.835938 21.367188 33.835938 C 21.335938 33.835938 21.242188 33.757812 21.140625 33.664062 C 21.046875 33.574219 20.929688 33.496094 20.898438 33.507812 C 20.851562 33.515625 20.828125 33.496094 20.828125 33.46875 C 20.851562 33.429688 20.75 33.328125 20.632812 33.25 C 20.527344 33.171875 20.390625 33.066406 20.34375 33.027344 C 20.292969 32.988281 20.1875 32.910156 20.097656 32.851562 C 19.96875 32.765625 19.960938 32.765625 20.070312 32.792969 C 20.136719 32.8125 20.28125 32.882812 20.398438 32.9375 Z M 17.257812 33.925781 C 17.15625 34.101562 16.992188 34.375 16.894531 34.523438 C 16.699219 34.835938 15.996094 36.21875 15.820312 36.621094 C 15.761719 36.765625 15.617188 37.128906 15.5 37.421875 C 15.382812 37.714844 15.253906 37.988281 15.234375 38.007812 C 15.070312 38.183594 15.359375 36.933594 15.671875 36.171875 C 16.015625 35.3125 16.5625 34.445312 17.1875 33.71875 C 17.304688 33.59375 17.414062 33.507812 17.421875 33.546875 C 17.429688 33.574219 17.363281 33.742188 17.257812 33.925781 Z M 32.859375 33.71875 C 33.523438 34.5 34.226562 35.742188 34.539062 36.71875 C 34.726562 37.285156 34.824219 37.734375 34.765625 37.773438 C 34.695312 37.8125 34.640625 37.695312 34.375 37.03125 C 33.867188 35.761719 32.832031 33.835938 32.695312 33.914062 C 32.664062 33.9375 32.664062 33.925781 32.6875 33.898438 C 32.703125 33.867188 32.6875 33.789062 32.648438 33.730469 C 32.558594 33.613281 32.539062 33.496094 32.617188 33.496094 C 32.636719 33.496094 32.742188 33.59375 32.859375 33.71875 Z M 26.347656 33.75 C 26.296875 33.796875 26.203125 33.835938 26.164062 33.835938 C 26.113281 33.835938 26.074219 33.867188 26.074219 33.886719 C 26.074219 33.976562 25.488281 34.21875 25.203125 34.257812 C 24.8125 34.304688 24.199219 34.148438 23.953125 33.925781 C 23.925781 33.90625 23.820312 33.835938 23.71875 33.769531 L 23.535156 33.671875 L 25 33.671875 C 26.398438 33.671875 26.464844 33.671875 26.347656 33.75 Z M 17.460938 33.828125 C 17.382812 33.90625 17.375 33.90625 17.429688 33.808594 C 17.46875 33.742188 17.507812 33.710938 17.53125 33.71875 C 17.539062 33.730469 17.507812 33.78125 17.460938 33.828125 Z M 28.078125 33.710938 C 28.078125 33.710938 28.027344 33.769531 27.96875 33.820312 L 27.859375 33.90625 L 27.949219 33.796875 C 28.039062 33.691406 28.078125 33.671875 28.078125 33.710938 Z M 23.585938 34.179688 C 24.109375 34.523438 24.367188 34.589844 25 34.589844 C 25.46875 34.589844 25.605469 34.570312 25.859375 34.484375 C 26.203125 34.355469 26.542969 34.140625 26.855469 33.886719 C 27.050781 33.71875 27.0625 33.71875 27 33.847656 C 26.875 34.082031 26.386719 34.550781 26.125 34.6875 C 25.976562 34.757812 25.90625 34.804688 25.976562 34.785156 C 26.09375 34.765625 26.09375 34.765625 26.007812 34.8125 C 25.945312 34.851562 25.898438 34.890625 25.878906 34.914062 C 25.859375 34.941406 25.75 35.007812 25.617188 35.078125 C 25.371094 35.203125 25.421875 35.234375 25.773438 35.15625 C 25.878906 35.125 26.035156 35.125 26.101562 35.136719 L 26.21875 35.164062 L 26.101562 35.320312 C 26.023438 35.410156 25.976562 35.546875 25.976562 35.625 C 25.976562 35.773438 25.8125 35.957031 25.4375 36.242188 C 25.359375 36.296875 25.351562 36.320312 25.410156 36.296875 C 25.449219 36.28125 25.488281 36.28125 25.488281 36.296875 C 25.488281 36.328125 25.097656 36.914062 25.046875 36.945312 C 24.980469 36.984375 24.757812 36.835938 24.757812 36.75 C 24.757812 36.710938 24.6875 36.601562 24.601562 36.515625 L 24.433594 36.347656 L 24.757812 36.328125 C 24.941406 36.308594 25 36.296875 24.902344 36.289062 C 24.609375 36.28125 24.414062 36.21875 24.414062 36.152344 C 24.414062 36.132812 24.367188 36.074219 24.296875 36.035156 C 24.1875 35.984375 23.925781 35.546875 23.925781 35.421875 C 23.925781 35.390625 23.875 35.332031 23.828125 35.273438 C 23.75 35.203125 23.691406 35.058594 23.75 35.058594 C 23.75 35.058594 23.875 35.085938 24.023438 35.136719 C 24.171875 35.175781 24.34375 35.203125 24.414062 35.203125 C 24.511719 35.195312 24.511719 35.1875 24.433594 35.175781 C 24.265625 35.136719 24.238281 35.058594 24.335938 34.980469 C 24.433594 34.902344 24.433594 34.902344 24.328125 34.929688 C 24.265625 34.941406 24.226562 34.941406 24.238281 34.914062 C 24.265625 34.882812 23.632812 34.472656 23.535156 34.445312 C 23.4375 34.421875 23.339844 34.355469 23.339844 34.304688 C 23.339844 34.277344 23.378906 34.296875 23.429688 34.328125 C 23.476562 34.375 23.46875 34.355469 23.417969 34.296875 C 23.273438 34.160156 23 33.808594 23 33.757812 C 23 33.742188 23.054688 33.78125 23.132812 33.847656 C 23.210938 33.914062 23.40625 34.0625 23.585938 34.179688 Z M 22.414062 34.199219 C 22.414062 34.238281 22.429688 34.277344 22.460938 34.289062 C 22.480469 34.296875 22.53125 34.375 22.558594 34.472656 C 22.578125 34.550781 22.597656 34.617188 22.585938 34.617188 C 22.578125 34.601562 22.441406 34.421875 22.296875 34.210938 L 22.023438 33.828125 L 22.21875 33.984375 C 22.324219 34.0625 22.414062 34.171875 22.414062 34.199219 Z M 27.734375 34.160156 C 27.570312 34.394531 27.5 34.453125 27.585938 34.257812 C 27.648438 34.160156 27.832031 33.9375 27.859375 33.9375 C 27.882812 33.9375 27.8125 34.03125 27.734375 34.160156 Z M 23.195312 34.589844 C 23.242188 34.65625 23.242188 34.667969 23.171875 34.640625 C 23.125 34.617188 23.09375 34.589844 23.09375 34.570312 C 23.09375 34.5 23.125 34.511719 23.195312 34.589844 Z M 21.308594 34.746094 C 21.367188 34.765625 21.386719 34.851562 21.386719 35.15625 C 21.386719 35.371094 21.4375 35.898438 21.484375 36.335938 C 21.660156 37.734375 21.648438 37.597656 21.515625 37.597656 C 21.367188 37.597656 21.367188 37.65625 21.210938 36.308594 C 21.046875 34.765625 21.046875 34.648438 21.308594 34.746094 Z M 26.679688 34.851562 C 26.660156 34.914062 26.632812 34.960938 26.601562 34.960938 C 26.582031 34.960938 26.5625 34.941406 26.582031 34.921875 C 26.59375 34.902344 26.609375 34.84375 26.632812 34.796875 C 26.679688 34.667969 26.710938 34.71875 26.679688 34.851562 Z M 28.9375 34.921875 C 28.953125 35.125 28.652344 37.820312 28.59375 37.882812 C 28.585938 37.890625 28.535156 37.871094 28.496094 37.84375 C 28.398438 37.765625 28.398438 37.519531 28.496094 36.738281 C 28.535156 36.425781 28.585938 35.859375 28.613281 35.5 C 28.679688 34.71875 28.679688 34.71875 28.808594 34.71875 C 28.886719 34.71875 28.90625 34.765625 28.9375 34.921875 Z M 23.390625 34.980469 C 23.390625 35.007812 23.359375 35 23.339844 34.960938 C 23.320312 34.921875 23.289062 34.851562 23.289062 34.8125 C 23.289062 34.734375 23.378906 34.890625 23.390625 34.980469 Z M 23.613281 35.460938 C 23.679688 35.515625 23.730469 35.578125 23.730469 35.605469 C 23.730469 35.695312 23.652344 35.644531 23.546875 35.5 C 23.417969 35.332031 23.457031 35.304688 23.613281 35.460938 Z M 26.414062 35.546875 C 26.359375 35.65625 26.269531 35.671875 26.269531 35.585938 C 26.269531 35.507812 26.4375 35.332031 26.453125 35.398438 C 26.464844 35.421875 26.445312 35.488281 26.414062 35.546875 Z M 26.6875 36.425781 C 26.640625 36.59375 26.609375 36.894531 26.609375 37.089844 C 26.609375 37.519531 26.59375 37.597656 26.4375 37.597656 C 26.367188 37.597656 26.171875 37.648438 26.007812 37.714844 L 25.683594 37.832031 L 25.625 37.714844 C 25.59375 37.648438 25.554688 37.597656 25.539062 37.597656 C 25.515625 37.597656 25.4375 37.539062 25.34375 37.460938 L 25.1875 37.324219 L 25.554688 37.089844 C 25.761719 36.960938 25.996094 36.777344 26.074219 36.679688 C 26.171875 36.570312 26.21875 36.542969 26.203125 36.601562 C 26.179688 36.660156 26.21875 36.640625 26.320312 36.523438 C 26.398438 36.425781 26.476562 36.308594 26.492188 36.257812 C 26.515625 36.21875 26.554688 36.179688 26.59375 36.179688 C 26.632812 36.179688 26.679688 36.140625 26.6875 36.101562 C 26.765625 35.917969 26.757812 36.152344 26.6875 36.425781 Z M 26.023438 36.257812 C 25.996094 36.335938 25.976562 36.335938 25.976562 36.28125 C 25.976562 36.191406 26.023438 36.113281 26.0625 36.152344 C 26.074219 36.164062 26.054688 36.210938 26.023438 36.257812 Z M 23.964844 36.738281 C 24.09375 36.867188 24.316406 37.03125 24.484375 37.117188 C 24.628906 37.207031 24.757812 37.285156 24.757812 37.3125 C 24.757812 37.335938 24.679688 37.421875 24.578125 37.507812 C 24.238281 37.8125 24.171875 38.171875 24.394531 38.496094 L 24.511719 38.671875 L 24.382812 38.867188 C 24.296875 38.976562 24.226562 39.0625 24.21875 39.0625 C 24.1875 39.0625 23.898438 38.195312 23.730469 37.578125 C 23.664062 37.351562 23.585938 37.089844 23.554688 36.992188 C 23.417969 36.621094 23.417969 36.59375 23.601562 36.75 C 23.78125 36.933594 24.070312 37.089844 24.296875 37.128906 C 24.382812 37.15625 24.34375 37.128906 24.199219 37.0625 C 23.90625 36.933594 23.554688 36.6875 23.496094 36.542969 C 23.46875 36.476562 23.476562 36.425781 23.535156 36.347656 L 23.601562 36.25 L 23.671875 36.375 C 23.710938 36.445312 23.835938 36.601562 23.964844 36.738281 Z M 23.515625 36.328125 C 23.496094 36.347656 23.457031 36.375 23.417969 36.375 C 23.390625 36.375 23.390625 36.359375 23.4375 36.328125 C 23.535156 36.269531 23.554688 36.269531 23.515625 36.328125 Z M 25.734375 36.523438 C 25.703125 36.582031 25.664062 36.621094 25.65625 36.601562 C 25.632812 36.59375 25.65625 36.542969 25.683594 36.503906 C 25.773438 36.398438 25.800781 36.40625 25.734375 36.523438 Z M 25.28125 37.765625 C 25.421875 37.871094 25.4375 37.988281 25.34375 38.039062 C 25.265625 38.078125 25.226562 38.066406 25.148438 37.988281 C 25.019531 37.859375 24.773438 37.859375 24.628906 37.988281 L 24.511719 38.09375 L 24.539062 37.988281 C 24.589844 37.832031 24.65625 37.742188 24.785156 37.695312 C 24.890625 37.648438 25.195312 37.675781 25.28125 37.765625 Z M 21.75 38.710938 C 22.070312 38.859375 22.507812 39.21875 22.507812 39.328125 C 22.507812 39.382812 21.921875 40.304688 21.804688 40.421875 C 21.757812 40.46875 21.699219 40.460938 21.515625 40.398438 C 20.664062 40.117188 20.019531 40.890625 20.019531 42.1875 C 20.019531 43.183594 20.332031 43.847656 20.878906 43.992188 C 21.140625 44.0625 21.414062 44.023438 21.484375 43.898438 C 21.53125 43.796875 21.554688 43.210938 21.503906 43.09375 C 21.484375 43.046875 21.40625 43.015625 21.269531 43.015625 C 21.074219 43.015625 21.046875 43.007812 21.007812 42.851562 C 20.976562 42.773438 20.945312 42.519531 20.929688 42.304688 C 20.898438 41.960938 20.90625 41.894531 20.984375 41.796875 C 21.074219 41.6875 21.09375 41.679688 22.03125 41.679688 C 23.046875 41.6875 23.164062 41.71875 23.222656 41.914062 C 23.25 42.03125 23.027344 44.433594 22.96875 44.773438 C 22.921875 45.019531 22.3125 45.421875 21.777344 45.578125 C 21.171875 45.742188 20.515625 45.722656 19.96875 45.507812 C 19.824219 45.460938 19.648438 45.359375 19.589844 45.3125 C 19.53125 45.265625 19.460938 45.214844 19.445312 45.214844 C 19.355469 45.214844 19.042969 44.824219 19.070312 44.765625 C 19.09375 44.726562 19.09375 44.726562 19.054688 44.746094 C 18.992188 44.785156 18.75 44.382812 18.601562 44.015625 C 18.289062 43.183594 18.28125 41.523438 18.585938 40.527344 C 18.703125 40.109375 19.023438 39.550781 19.265625 39.289062 C 19.601562 38.953125 19.851562 38.789062 20.265625 38.652344 C 20.773438 38.476562 21.289062 38.496094 21.75 38.710938 Z M 27.804688 38.710938 C 28.15625 38.875 28.515625 39.179688 28.515625 39.304688 C 28.515625 39.375 27.949219 40.382812 27.859375 40.460938 C 27.859375 40.46875 27.714844 40.4375 27.558594 40.398438 C 26.828125 40.203125 26.320312 40.65625 26.152344 41.6875 C 26.023438 42.429688 26.152344 43.164062 26.503906 43.625 C 26.804688 44.023438 27.140625 44.132812 27.585938 43.964844 C 27.859375 43.867188 27.859375 43.867188 27.921875 44.023438 C 27.976562 44.171875 28.125 45.097656 28.125 45.292969 C 28.125 45.554688 27.363281 45.742188 26.621094 45.65625 C 25.761719 45.546875 25.195312 45.125 24.804688 44.316406 C 24.492188 43.664062 24.394531 43.164062 24.394531 42.285156 C 24.394531 41.171875 24.609375 40.304688 25.046875 39.617188 C 25.664062 38.679688 26.882812 38.28125 27.804688 38.710938 Z M 14.65625 38.859375 C 15.1875 39.054688 15.554688 39.382812 15.773438 39.875 C 15.917969 40.175781 15.945312 40.839844 15.851562 41.152344 C 15.734375 41.492188 15.515625 41.777344 15.226562 41.960938 C 15.007812 42.089844 14.992188 42.109375 15.070312 42.167969 C 15.117188 42.207031 15.175781 42.234375 15.203125 42.234375 C 15.292969 42.234375 15.671875 42.585938 15.800781 42.773438 C 15.96875 43.046875 16.085938 43.554688 16.046875 43.945312 C 15.996094 44.511719 15.59375 45.148438 15.136719 45.390625 C 14.746094 45.585938 14.523438 45.625 13.183594 45.632812 C 12.03125 45.65625 11.894531 45.65625 11.816406 45.578125 C 11.71875 45.5 11.71875 45.34375 11.71875 42.1875 L 11.71875 38.867188 L 11.835938 38.789062 C 11.921875 38.71875 12.089844 38.71875 13.164062 38.742188 C 14.25 38.75 14.40625 38.769531 14.65625 38.859375 Z M 17.773438 38.769531 C 18.078125 38.859375 18.066406 38.679688 18.066406 42.21875 C 18.066406 45.398438 18.066406 45.4375 17.96875 45.546875 C 17.871094 45.65625 17.84375 45.65625 17.195312 45.632812 C 16.582031 45.605469 16.523438 45.605469 16.445312 45.507812 C 16.359375 45.410156 16.359375 45.175781 16.359375 42.234375 C 16.359375 39.960938 16.375 39.03125 16.40625 38.945312 C 16.445312 38.875 16.523438 38.796875 16.601562 38.769531 C 16.765625 38.710938 17.558594 38.703125 17.773438 38.769531 Z M 32.195312 38.769531 C 32.265625 38.789062 32.351562 38.875 32.390625 38.953125 C 32.46875 39.101562 32.734375 40.214844 33.222656 42.363281 C 33.378906 43.027344 33.601562 43.984375 33.71875 44.484375 C 33.835938 44.96875 33.9375 45.429688 33.90625 45.488281 C 33.898438 45.566406 33.847656 45.605469 33.769531 45.605469 C 33 45.625 32.207031 45.585938 32.167969 45.539062 C 32.148438 45.507812 32.117188 45.390625 32.109375 45.292969 C 32.078125 45.1875 32.050781 45.007812 32.03125 44.902344 L 31.984375 44.726562 L 31.0625 44.734375 L 30.15625 44.746094 L 30.070312 45.136719 C 30.019531 45.351562 29.960938 45.554688 29.921875 45.585938 C 29.882812 45.644531 29.695312 45.65625 29.082031 45.644531 L 28.300781 45.625 L 28.300781 45.460938 C 28.300781 45.359375 28.429688 44.734375 28.585938 44.0625 C 28.742188 43.390625 29.054688 41.972656 29.296875 40.90625 C 29.523438 39.84375 29.757812 38.9375 29.785156 38.886719 C 29.824219 38.847656 29.902344 38.789062 29.960938 38.769531 C 30.097656 38.710938 32.050781 38.710938 32.195312 38.769531 Z M 37.0625 38.789062 C 37.898438 38.964844 38.378906 39.472656 38.554688 40.371094 C 38.679688 40.996094 38.59375 41.601562 38.28125 42.1875 C 37.859375 42.976562 37.285156 43.328125 36.296875 43.390625 L 35.839844 43.429688 L 35.839844 44.484375 C 35.839844 45.460938 35.828125 45.554688 35.761719 45.59375 C 35.644531 45.65625 34.34375 45.644531 34.289062 45.585938 C 34.257812 45.554688 34.226562 44.140625 34.210938 42.257812 L 34.179688 38.964844 L 34.421875 38.71875 L 35.578125 38.71875 C 36.398438 38.71875 36.835938 38.75 37.0625 38.789062 Z M 38.007812 44.121094 C 38.105469 44.472656 38.210938 45.605469 38.144531 45.605469 C 38.117188 45.605469 38.085938 45.398438 38.066406 45.148438 C 38.046875 44.902344 38.007812 44.550781 37.96875 44.367188 C 37.9375 44.1875 37.921875 44.042969 37.9375 44.042969 C 37.96875 44.042969 37.988281 44.082031 38.007812 44.121094 Z M 38.007812 44.121094 "/>
<path style=" stroke:none;fill-rule:nonzero;fill:rgb(0%,0%,0%);fill-opacity:1;" d="M 29.570312 10.734375 C 29.453125 11.476562 29.453125 11.476562 29.6875 11.476562 C 29.875 11.476562 29.882812 11.476562 29.863281 11.335938 C 29.84375 11.257812 29.804688 10.984375 29.765625 10.722656 C 29.71875 10.449219 29.679688 10.234375 29.667969 10.226562 C 29.667969 10.214844 29.617188 10.449219 29.570312 10.734375 Z M 29.570312 10.734375 "/>
<path style=" stroke:none;fill-rule:nonzero;fill:rgb(0%,0%,0%);fill-opacity:1;" d="M 32.96875 10.8125 C 32.976562 11.0625 33.007812 11.289062 33.027344 11.308594 C 33.085938 11.375 33.320312 11.25 33.390625 11.113281 C 33.476562 10.929688 33.417969 10.664062 33.25 10.488281 C 33 10.234375 32.949219 10.28125 32.96875 10.8125 Z M 32.96875 10.8125 "/>
<path style=" stroke:none;fill-rule:nonzero;fill:rgb(0%,0%,0%);fill-opacity:1;" d="M 17.382812 10.644531 C 17.382812 11.085938 17.429688 11.132812 17.65625 10.917969 C 17.792969 10.773438 17.851562 10.59375 17.792969 10.421875 C 17.753906 10.304688 17.703125 10.273438 17.558594 10.265625 L 17.382812 10.253906 Z M 17.382812 10.644531 "/>
<path style=" stroke:none;fill-rule:nonzero;fill:rgb(0%,0%,0%);fill-opacity:1;" d="M 17.382812 12.453125 C 17.382812 12.9375 17.414062 12.960938 17.6875 12.703125 C 17.851562 12.546875 17.898438 12.34375 17.820312 12.15625 C 17.773438 12.03125 17.734375 12.011719 17.578125 12.011719 L 17.382812 12.011719 Z M 17.382812 12.453125 "/>
<path style=" stroke:none;fill-rule:nonzero;fill:rgb(0%,0%,0%);fill-opacity:1;" d="M 31.375 20.957031 C 31.347656 21.054688 31.367188 21.191406 31.398438 21.171875 C 31.414062 21.152344 31.4375 21.09375 31.4375 21.015625 C 31.4375 20.890625 31.40625 20.859375 31.375 20.957031 Z M 31.375 20.957031 "/>
<path style=" stroke:none;fill-rule:nonzero;fill:rgb(0%,0%,0%);fill-opacity:1;" d="M 34.914062 21.21875 C 34.914062 21.269531 34.929688 21.289062 34.941406 21.25 C 34.960938 21.210938 34.960938 21.171875 34.941406 21.164062 C 34.929688 21.140625 34.914062 21.171875 34.914062 21.21875 Z M 34.914062 21.21875 "/>
<path style=" stroke:none;fill-rule:nonzero;fill:rgb(0%,0%,0%);fill-opacity:1;" d="M 33.496094 21.796875 C 33.429688 21.84375 33.398438 21.875 33.417969 21.875 C 33.445312 21.875 33.523438 21.84375 33.59375 21.796875 C 33.664062 21.757812 33.691406 21.726562 33.671875 21.726562 C 33.640625 21.726562 33.5625 21.757812 33.496094 21.796875 Z M 33.496094 21.796875 "/>
<path style=" stroke:none;fill-rule:nonzero;fill:rgb(0%,0%,0%);fill-opacity:1;" d="M 17.304688 21.804688 C 17.234375 21.828125 17.039062 21.867188 16.894531 21.90625 C 16.164062 22.117188 15.625 22.78125 16.015625 23 C 16.132812 23.054688 16.113281 23.066406 16.554688 22.773438 C 17.363281 22.234375 18.28125 22.3125 19.8125 23.046875 C 20.4375 23.339844 20.527344 23.367188 20.65625 23.328125 C 20.867188 23.261719 20.929688 23.066406 20.8125 22.898438 C 20.625 22.65625 19.445312 22.117188 18.632812 21.90625 C 18.183594 21.777344 17.742188 21.757812 17.304688 21.804688 Z M 17.304688 21.804688 "/>
<path style=" stroke:none;fill-rule:nonzero;fill:rgb(0%,0%,0%);fill-opacity:1;" d="M 31.035156 21.992188 C 29.914062 22.382812 29.226562 22.734375 29.070312 22.96875 C 29.003906 23.085938 29.003906 23.105469 29.070312 23.210938 C 29.21875 23.4375 29.296875 23.417969 30.117188 23.046875 C 31.203125 22.546875 31.582031 22.441406 32.246094 22.441406 C 32.859375 22.441406 32.988281 22.480469 33.507812 22.832031 C 33.859375 23.078125 33.984375 23.085938 34.070312 22.871094 C 34.160156 22.6875 34.148438 22.675781 33.90625 22.414062 C 33.46875 21.945312 32.988281 21.777344 32.109375 21.777344 C 31.660156 21.789062 31.570312 21.796875 31.035156 21.992188 Z M 31.035156 21.992188 "/>
<path style=" stroke:none;fill-rule:nonzero;fill:rgb(0%,0%,0%);fill-opacity:1;" d="M 17.949219 23.046875 C 17.070312 23.300781 16.476562 23.945312 16.289062 24.824219 C 16.0625 25.898438 16.425781 26.882812 17.285156 27.492188 C 17.804688 27.851562 18.339844 27.910156 19.109375 27.703125 C 19.257812 27.65625 19.394531 27.609375 19.40625 27.585938 C 19.414062 27.578125 19.25 27.570312 19.023438 27.585938 C 18.820312 27.585938 18.507812 27.570312 18.359375 27.539062 C 17.703125 27.390625 17.109375 26.921875 16.828125 26.335938 C 16.6875 26.035156 16.679688 25.957031 16.679688 25.554688 C 16.679688 25.195312 16.699219 25.078125 16.796875 24.863281 C 16.867188 24.726562 16.933594 24.609375 16.960938 24.609375 C 16.984375 24.609375 16.992188 24.640625 16.972656 24.679688 C 16.972656 24.707031 16.921875 24.863281 16.894531 25.03125 C 16.632812 26.257812 17.648438 27.363281 18.964844 27.285156 C 20.1875 27.21875 21.09375 26.101562 20.898438 24.902344 C 20.683594 23.507812 19.335938 22.65625 17.949219 23.046875 Z M 18.15625 23.847656 C 18.671875 24.414062 17.851562 25.175781 17.285156 24.65625 C 17.15625 24.539062 17.140625 24.492188 17.140625 24.277344 C 17.140625 23.703125 17.773438 23.4375 18.15625 23.847656 Z M 18.15625 23.847656 "/>
<path style=" stroke:none;fill-rule:nonzero;fill:rgb(0%,0%,0%);fill-opacity:1;" d="M 30.859375 23 C 30.546875 23.066406 30.085938 23.300781 29.824219 23.535156 C 29.25 24.042969 28.953125 24.902344 29.132812 25.617188 C 29.289062 26.296875 29.695312 26.828125 30.3125 27.117188 C 30.617188 27.257812 30.683594 27.273438 31.132812 27.273438 C 31.515625 27.265625 31.671875 27.246094 31.882812 27.15625 C 32.8125 26.789062 33.300781 25.800781 33.039062 24.8125 C 33 24.679688 32.988281 24.5625 33.007812 24.5625 C 33.027344 24.5625 33.085938 24.679688 33.15625 24.8125 C 33.25 25.03125 33.28125 25.148438 33.28125 25.554688 C 33.28125 26.015625 33.273438 26.074219 33.117188 26.375 C 32.9375 26.726562 32.507812 27.179688 32.179688 27.34375 C 31.828125 27.519531 31.464844 27.597656 31.007812 27.578125 C 30.761719 27.570312 30.566406 27.578125 30.566406 27.585938 C 30.566406 27.636719 30.929688 27.734375 31.347656 27.78125 C 31.914062 27.859375 32.226562 27.804688 32.6875 27.492188 C 33.703125 26.804688 34.0625 25.371094 33.515625 24.238281 C 33.328125 23.867188 32.859375 23.390625 32.5 23.222656 C 32 22.988281 31.375 22.898438 30.859375 23 Z M 32.570312 23.730469 C 32.929688 23.945312 33 24.367188 32.714844 24.65625 C 32.519531 24.84375 32.296875 24.882812 32.0625 24.785156 C 31.835938 24.679688 31.71875 24.492188 31.71875 24.238281 C 31.71875 23.992188 31.804688 23.847656 32 23.730469 C 32.195312 23.601562 32.34375 23.613281 32.570312 23.730469 Z M 32.570312 23.730469 "/>
<path style=" stroke:none;fill-rule:nonzero;fill:rgb(0%,0%,0%);fill-opacity:1;" d="M 15.3125 24.902344 C 15.28125 24.929688 15.28125 24.96875 15.304688 24.980469 C 15.3125 25 15.332031 24.96875 15.351562 24.921875 C 15.382812 24.84375 15.351562 24.824219 15.3125 24.902344 Z M 15.3125 24.902344 "/>
<path style=" stroke:none;fill-rule:nonzero;fill:rgb(0%,0%,0%);fill-opacity:1;" d="M 24.707031 27.226562 C 24.511719 27.3125 24.367188 27.46875 24.367188 27.597656 C 24.367188 27.703125 24.355469 27.703125 24.589844 27.585938 C 24.6875 27.539062 24.875 27.492188 24.992188 27.492188 C 25.214844 27.492188 25.507812 27.617188 25.46875 27.6875 C 25.449219 27.703125 25.488281 27.714844 25.539062 27.703125 C 25.742188 27.648438 25.617188 27.375 25.320312 27.246094 C 25.078125 27.128906 24.929688 27.128906 24.707031 27.226562 Z M 24.707031 27.226562 "/>
<path style=" stroke:none;fill-rule:nonzero;fill:rgb(0%,0%,0%);fill-opacity:1;" d="M 23.125 28.742188 C 22.949219 28.925781 23.066406 29.132812 23.496094 29.328125 C 23.984375 29.570312 24.460938 29.65625 25.164062 29.617188 C 25.90625 29.589844 26.445312 29.445312 26.757812 29.160156 C 26.933594 29.003906 26.960938 28.953125 26.933594 28.847656 C 26.882812 28.640625 26.738281 28.632812 26.375 28.828125 C 25.996094 29.023438 25.898438 29.054688 25.371094 29.101562 C 24.679688 29.179688 23.859375 29.023438 23.484375 28.757812 C 23.320312 28.640625 23.222656 28.640625 23.125 28.742188 Z M 23.125 28.742188 "/>
<path style=" stroke:none;fill-rule:nonzero;fill:rgb(0%,0%,0%);fill-opacity:1;" d="M 15.410156 29.414062 C 15.460938 29.484375 15.5 29.539062 15.507812 29.539062 C 15.546875 29.539062 15.429688 29.34375 15.382812 29.316406 C 15.351562 29.296875 15.359375 29.34375 15.410156 29.414062 Z M 15.410156 29.414062 "/>
<path style=" stroke:none;fill-rule:nonzero;fill:rgb(0%,0%,0%);fill-opacity:1;" d="M 19.023438 31.738281 C 19.070312 31.765625 19.148438 31.789062 19.1875 31.789062 C 19.238281 31.789062 19.226562 31.765625 19.160156 31.738281 C 19.109375 31.71875 19.03125 31.6875 18.992188 31.6875 C 18.945312 31.6875 18.953125 31.71875 19.023438 31.738281 Z M 19.023438 31.738281 "/>
<path style=" stroke:none;fill-rule:nonzero;fill:rgb(0%,0%,0%);fill-opacity:1;" d="M 13.378906 25.878906 C 13.378906 25.90625 13.40625 25.9375 13.429688 25.957031 C 13.457031 25.96875 13.476562 25.945312 13.476562 25.90625 C 13.476562 25.859375 13.457031 25.828125 13.429688 25.828125 C 13.40625 25.828125 13.378906 25.851562 13.378906 25.878906 Z M 13.378906 25.878906 "/>
<path style=" stroke:none;fill-rule:nonzero;fill:rgb(0%,0%,0%);fill-opacity:1;" d="M 37.207031 26.972656 C 37.140625 27.011719 37.070312 27.03125 37.050781 27.023438 C 37.03125 27 37.03125 27.03125 37.039062 27.070312 C 37.0625 27.128906 37.089844 27.128906 37.207031 27.039062 C 37.414062 26.882812 37.414062 26.867188 37.207031 26.972656 Z M 37.207031 26.972656 "/>
<path style=" stroke:none;fill-rule:nonzero;fill:rgb(0%,0%,0%);fill-opacity:1;" d="M 36.699219 27.246094 L 36.601562 27.351562 L 36.738281 27.296875 C 36.804688 27.257812 36.867188 27.21875 36.867188 27.1875 C 36.867188 27.128906 36.796875 27.148438 36.699219 27.246094 Z M 36.699219 27.246094 "/>
<path style=" stroke:none;fill-rule:nonzero;fill:rgb(0%,0%,0%);fill-opacity:1;" d="M 36.445312 27.492188 C 36.4375 27.519531 36.445312 27.539062 36.476562 27.539062 C 36.492188 27.539062 36.53125 27.519531 36.542969 27.492188 C 36.5625 27.460938 36.554688 27.441406 36.523438 27.441406 C 36.503906 27.441406 36.464844 27.460938 36.445312 27.492188 Z M 36.445312 27.492188 "/>
<path style=" stroke:none;fill-rule:nonzero;fill:rgb(0%,0%,0%);fill-opacity:1;" d="M 21.152344 33.625 C 21.203125 33.671875 21.25 33.703125 21.257812 33.691406 C 21.269531 33.671875 21.242188 33.632812 21.171875 33.59375 C 21.074219 33.535156 21.074219 33.546875 21.152344 33.625 Z M 21.152344 33.625 "/>
<path style=" stroke:none;fill-rule:nonzero;fill:rgb(0%,0%,0%);fill-opacity:1;" d="M 21.4375 33.90625 C 21.4375 33.914062 21.476562 33.953125 21.523438 33.984375 C 21.601562 34.054688 21.601562 34.054688 21.53125 33.964844 C 21.476562 33.886719 21.4375 33.867188 21.4375 33.90625 Z M 21.4375 33.90625 "/>
<path style=" stroke:none;fill-rule:nonzero;fill:rgb(0%,0%,0%);fill-opacity:1;" d="M 23.828125 33.742188 C 23.828125 33.808594 24.015625 33.898438 24.109375 33.867188 C 24.1875 33.859375 24.179688 33.847656 24.101562 33.820312 C 24.042969 33.796875 23.953125 33.757812 23.914062 33.742188 C 23.859375 33.710938 23.828125 33.710938 23.828125 33.742188 Z M 23.828125 33.742188 "/>
<path style=" stroke:none;fill-rule:nonzero;fill:rgb(0%,0%,0%);fill-opacity:1;" d="M 13.378906 40.96875 L 13.378906 41.621094 L 13.625 41.582031 C 13.945312 41.554688 14.09375 41.453125 14.1875 41.230469 C 14.382812 40.75 14.09375 40.332031 13.574219 40.332031 L 13.378906 40.332031 Z M 13.378906 40.96875 "/>
<path style=" stroke:none;fill-rule:nonzero;fill:rgb(0%,0%,0%);fill-opacity:1;" d="M 13.390625 43.515625 L 13.40625 44.160156 L 13.671875 44.148438 C 14.140625 44.121094 14.34375 43.898438 14.289062 43.496094 C 14.238281 43.132812 13.945312 42.871094 13.554688 42.871094 L 13.378906 42.871094 Z M 13.390625 43.515625 "/>
<path style=" stroke:none;fill-rule:nonzero;fill:rgb(0%,0%,0%);fill-opacity:1;" d="M 31.035156 40.449219 C 31.023438 40.527344 30.90625 41.132812 30.789062 41.777344 C 30.664062 42.414062 30.554688 42.988281 30.546875 43.046875 C 30.5 43.261719 30.625 43.3125 31.152344 43.3125 C 31.621094 43.3125 31.640625 43.3125 31.640625 43.203125 C 31.640625 43.066406 31.152344 40.546875 31.101562 40.410156 C 31.074219 40.3125 31.0625 40.332031 31.035156 40.449219 Z M 31.035156 40.449219 "/>
<path style=" stroke:none;fill-rule:nonzero;fill:rgb(0%,0%,0%);fill-opacity:1;" d="M 35.890625 40.4375 C 35.851562 40.722656 35.859375 41.984375 35.898438 42.011719 C 35.917969 42.039062 36.054688 42.023438 36.203125 41.992188 C 36.671875 41.894531 36.882812 41.621094 36.882812 41.085938 C 36.882812 40.59375 36.570312 40.28125 36.085938 40.28125 C 35.917969 40.28125 35.898438 40.292969 35.890625 40.4375 Z M 35.890625 40.4375 "/>
</g>
</svg>
